<?xml version="1.0" encoding="UTF-8"?>
<svg width="230px" height="231px" viewBox="0 0 230 231" version="1.1" xmlns="http://www.w3.org/2000/svg" xmlns:xlink="http://www.w3.org/1999/xlink">
    <!-- Generator: Sketch 59.1 (86144) - https://sketch.com -->
    <title>Combined Shape</title>
    <desc>Created with Sketch.</desc>
    <g id="2-3-Dashboard-stats" stroke="none" stroke-width="1" fill="none" fill-rule="evenodd">
        <g id="Artboard" transform="translate(-321.000000, -235.000000)" fill="#000000">
            <path class="pokeball-svg" d="M482.70737,358.907694 L551.000063,358.908234 C546.604352,418.582157 496.796571,465.630759 436,465.630759 C375.203429,465.630759 325.395648,418.582157 320.999937,358.908234 L389.29263,358.907694 C393.336066,381.030047 412.709829,397.798183 436,397.798183 C459.290171,397.798183 478.663934,381.030047 482.70737,358.907694 Z M436,320 C452.568542,320 466,333.431458 466,350 C466,366.568542 452.568542,380 436,380 C419.431458,380 406,366.568542 406,350 C406,333.431458 419.431458,320 436,320 Z M436,235 C496.489276,235 546.100566,281.574191 550.929932,340.818634 L482.532797,340.817943 C478.132984,319.144946 458.971471,302.832576 436,302.832576 C413.028529,302.832576 393.867016,319.144946 389.467203,340.817943 L321.070068,340.818634 C325.899434,281.574191 375.510724,235 436,235 Z" id="Combined-Shape"></path>
        </g>
    </g>
</svg>